<?xml version="1.0" encoding="utf-8"?>
<!-- Generator: Adobe Illustrator 22.0.0, SVG Export Plug-In . SVG Version: 6.00 Build 0)  -->
<svg version="1.1" id="Layer_1" xmlns="http://www.w3.org/2000/svg" xmlns:xlink="http://www.w3.org/1999/xlink" x="0px" y="0px"
	 viewBox="0 0 210 41.3" style="enable-background:new 0 0 210 41.3;" xml:space="preserve">
<style type="text/css">
	.st0{fill:#333434;}
	.st1{fill:#AEADAE;}
	.st2{fill:url(#SVGID_1_);}
	.st3{fill:#7B7B7B;}
	.st4{fill:url(#SVGID_2_);}
	.st5{fill:url(#SVGID_3_);}
</style>
<g>
	<g>
		<path class="st0" d="M44.4,20h2.4V5.7h-2.4V3h14.1v5.1h-3.1V6h-5v5.7h6.4v2.9h-6.4V20H53v2.7h-8.6V20z"/>
		<path class="st0" d="M62,5.6h-2.2V3h5.7v15c0,1.3,0.3,1.9,1.4,1.9c0.4,0,0.7,0,0.7,0v2.8c0,0-0.6,0.1-1.3,0.1
			c-2.3,0-4.3-0.8-4.3-4.6V5.6z"/>
		<path class="st0" d="M77.2,8.2c4.1,0,6.3,3,6.3,6.7c0,0.4-0.1,1.2-0.1,1.2h-9.8c0.2,2.6,2.1,3.9,4.3,3.9c2.3,0,4.1-1.5,4.1-1.5
			l1.4,2.5c0,0-2.2,2-5.7,2c-4.7,0-7.6-3.4-7.6-7.4C70,11.3,72.9,8.2,77.2,8.2z M79.8,14c-0.1-1.9-1.3-3.1-2.8-3.1
			c-1.8,0-3.1,1.3-3.4,3.1H79.8z"/>
		<path class="st0" d="M93.3,8.2c4.1,0,6.3,3,6.3,6.7c0,0.4-0.1,1.2-0.1,1.2h-9.8c0.2,2.6,2.1,3.9,4.3,3.9c2.3,0,4.1-1.5,4.1-1.5
			l1.4,2.5c0,0-2.2,2-5.7,2c-4.7,0-7.6-3.4-7.6-7.4C86.1,11.3,89,8.2,93.3,8.2z M95.9,14c-0.1-1.9-1.3-3.1-2.8-3.1
			c-1.8,0-3.1,1.3-3.4,3.1H95.9z"/>
		<path class="st0" d="M103.3,11.2h-2.2V8.5h2.3V4.7h3.4v3.9h3.2v2.6h-3.2v6c0,2.4,1.8,2.8,2.8,2.8c0.4,0,0.6,0,0.6,0v2.9
			c0,0-0.4,0.1-1.1,0.1c-2,0-5.9-0.6-5.9-5.3V11.2z"/>
		<path class="st0" d="M112.8,20h2.3l1.2-14.3h-2.4V3h6.4l4.4,11.2c0.3,1,0.5,1.6,0.5,1.6h0.1c0,0,0.1-0.7,0.5-1.6L130.1,3h6.4v2.8
			h-2.4l1.1,14.3h2.3v2.7h-8.1V20h2.2L131,10c-0.1-0.7,0.1-1.8,0.1-1.8H131c0,0-0.2,1.1-0.5,1.8l-3.8,9.1h-3.1l-3.8-9.1
			c-0.3-0.7-0.4-1.8-0.4-1.8h-0.1c0,0,0.1,1.1,0.1,1.8l-0.7,10h2.2v2.7h-8.1V20z"/>
		<path class="st0" d="M147.5,13.9h0.9v-0.5c0-1.8-1.1-2.4-2.6-2.4c-2.1,0-4,1.4-4,1.4l-1.3-2.4c0,0,2.2-1.8,5.6-1.8
			c3.8,0,5.8,2,5.8,5.6v5.7c0,0.4,0.2,0.6,0.6,0.6h1.3v2.6h-3.3c-1.3,0-1.8-0.7-1.8-1.5V21c0-0.4,0.1-0.7,0.1-0.7h-0.1
			c0,0-1.2,2.7-4.5,2.7c-2.4,0-4.7-1.4-4.7-4.3C139.5,14.4,145.2,13.9,147.5,13.9z M145.1,20.4c1.9,0,3.3-2.1,3.3-3.8v-0.5h-0.6
			c-1.4,0-4.8,0.2-4.8,2.4C143.1,19.5,143.8,20.4,145.1,20.4z"/>
		<path class="st0" d="M154.9,8.5h6.8v2.6h-1.6l2.4,7c0.3,0.7,0.4,1.6,0.4,1.6h0.1c0,0,0.1-0.8,0.3-1.6l2.5-7h-1.6V8.5h6.8v2.6h-1.7
			L165,22.7h-4.1l-4.3-11.5h-1.7V8.5z"/>
		<path class="st0" d="M180.1,8.2c4.1,0,6.3,3,6.3,6.7c0,0.4-0.1,1.2-0.1,1.2h-9.8c0.2,2.6,2.1,3.9,4.3,3.9c2.3,0,4.1-1.5,4.1-1.5
			l1.4,2.5c0,0-2.2,2-5.7,2c-4.7,0-7.6-3.4-7.6-7.4C172.9,11.3,175.8,8.2,180.1,8.2z M182.7,14c-0.1-1.9-1.3-3.1-2.8-3.1
			c-1.8,0-3.1,1.3-3.4,3.1H182.7z"/>
		<path class="st0" d="M189.2,20.1h2.1v-8.3c0-0.4-0.2-0.6-0.6-0.6h-1.6V8.5h3.7c1.3,0,1.8,0.6,1.8,1.6v0.6c0,0.3-0.1,0.6-0.1,0.6
			h0.1c0.2-0.4,1.7-3.2,5.2-3.2c3,0,4.8,1.6,4.8,5.4v6.5h2.1v2.6h-5.6v-8.4c0-1.7-0.5-2.9-2.3-2.9c-2.6,0-4.1,2.4-4.1,4.9v3.7h2v2.6
			h-7.6V20.1z"/>
		<path class="st1" d="M44,29.2h3.2c1.5,0,2.6,1.1,2.6,2.7c0,1.6-1.1,2.7-2.6,2.7h-1.7v2.8H44V29.2z M46.9,33.2
			c0.9,0,1.4-0.6,1.4-1.4c0-0.8-0.5-1.4-1.4-1.4h-1.4v2.8H46.9z"/>
		<path class="st1" d="M51.4,31.5h1.4v1c0,0.2,0,0.4,0,0.4h0c0.3-0.8,1-1.5,1.9-1.5c0.1,0,0.3,0,0.3,0v1.4c0,0-0.2,0-0.3,0
			c-0.6,0-1.3,0.4-1.6,1.2c-0.1,0.3-0.1,0.6-0.1,1v2.3h-1.5V31.5z"/>
		<path class="st1" d="M59,31.3c1.7,0,2.6,1.2,2.6,2.8c0,0.2,0,0.6,0,0.6h-4.1c0.1,1,0.9,1.6,1.8,1.6c1,0,1.7-0.6,1.7-0.6l0.6,1.1
			c0,0-0.9,0.8-2.4,0.8c-2,0-3.2-1.4-3.2-3.1C56,32.6,57.2,31.3,59,31.3z M60.1,33.7c0-0.8-0.5-1.2-1.2-1.2c-0.8,0-1.3,0.5-1.4,1.2
			H60.1z"/>
		<path class="st1" d="M66,31.3c1.5,0,2.3,0.9,2.3,0.9l-0.6,1c0,0-0.6-0.6-1.5-0.6c-1.1,0-1.8,0.8-1.8,1.8c0,1,0.7,1.9,1.8,1.9
			c1,0,1.7-0.8,1.7-0.8l0.6,1c0,0-0.8,1-2.4,1c-2,0-3.2-1.4-3.2-3.1C62.8,32.8,64.1,31.3,66,31.3z"/>
		<path class="st1" d="M70,29.2h1.5v1.3H70V29.2z M70,31.5h1.5v5.9H70V31.5z"/>
		<path class="st1" d="M73.8,35.6c0,0,0.6,0.6,1.6,0.6c0.4,0,0.8-0.2,0.8-0.5c0-0.9-2.9-0.8-2.9-2.7c0-1.1,1-1.7,2.3-1.7
			c1.3,0,2,0.7,2,0.7L77,33.1c0,0-0.5-0.5-1.4-0.5c-0.4,0-0.8,0.2-0.8,0.5c0,0.8,2.9,0.7,2.9,2.6c0,1-0.9,1.8-2.3,1.8
			c-1.5,0-2.3-0.9-2.3-0.9L73.8,35.6z"/>
		<path class="st1" d="M79.3,29.2h1.5v1.3h-1.5V29.2z M79.3,31.5h1.5v5.9h-1.5V31.5z"/>
		<path class="st1" d="M85.7,31.3c1.8,0,3.3,1.3,3.3,3.1c0,1.8-1.4,3.1-3.2,3.1c-1.8,0-3.3-1.3-3.3-3.1
			C82.4,32.6,83.9,31.3,85.7,31.3z M85.7,36.3c1,0,1.7-0.7,1.7-1.8c0-1.1-0.8-1.8-1.7-1.8c-1,0-1.8,0.8-1.8,1.8
			C83.9,35.5,84.7,36.3,85.7,36.3z"/>
		<path class="st1" d="M90.6,31.5H92v0.7c0,0.2,0,0.4,0,0.4h0c0.3-0.5,0.9-1.2,2.1-1.2c1.3,0,2.1,0.7,2.1,2.2v3.8h-1.5v-3.5
			c0-0.7-0.2-1.2-0.9-1.2c-0.8,0-1.4,0.5-1.6,1.2c-0.1,0.2-0.1,0.5-0.1,0.8v2.7h-1.5V31.5z"/>
		<path class="st1" d="M101.6,29.2h4.7v1.3h-3.2v2.3h2.7v1.3h-2.7v3.3h-1.5V29.2z"/>
		<path class="st1" d="M107.9,29.2h1.5v6.2c0,0.6,0.2,0.8,0.6,0.8c0.1,0,0.2,0,0.2,0v1.3c0,0-0.2,0-0.5,0c-0.8,0-1.8-0.2-1.8-1.9
			V29.2z"/>
		<path class="st1" d="M114.3,31.3c1.7,0,2.6,1.2,2.6,2.8c0,0.2,0,0.6,0,0.6h-4.1c0.1,1,0.9,1.6,1.8,1.6c1,0,1.7-0.6,1.7-0.6
			l0.6,1.1c0,0-0.9,0.8-2.4,0.8c-2,0-3.2-1.4-3.2-3.1C111.3,32.6,112.6,31.3,114.3,31.3z M115.5,33.7c0-0.8-0.5-1.2-1.2-1.2
			c-0.8,0-1.3,0.5-1.4,1.2H115.5z"/>
		<path class="st1" d="M121.2,31.3c1.7,0,2.6,1.2,2.6,2.8c0,0.2,0,0.6,0,0.6h-4.1c0.1,1,0.9,1.6,1.8,1.6c0.9,0,1.7-0.6,1.7-0.6
			l0.6,1.1c0,0-0.9,0.8-2.4,0.8c-2,0-3.2-1.4-3.2-3.1C118.2,32.6,119.5,31.3,121.2,31.3z M122.4,33.7c0-0.8-0.5-1.2-1.2-1.2
			c-0.8,0-1.3,0.5-1.4,1.2H122.4z"/>
		<path class="st1" d="M125.8,32.7H125v-1.2h0.8v-1.7h1.4v1.7h1.3v1.2h-1.3V35c0,1,0.8,1.1,1.2,1.1c0.2,0,0.3,0,0.3,0v1.3
			c0,0-0.2,0-0.5,0c-0.8,0-2.5-0.2-2.5-2.2V32.7z"/>
		<path class="st1" d="M138,35.3h-2.9l-0.7,2.1h-1.5l2.9-8.2h1.6l2.9,8.2h-1.5L138,35.3z M136.5,30.6c0,0-0.2,0.8-0.3,1.3l-0.7,2.2
			h2.2l-0.7-2.2C136.7,31.4,136.5,30.6,136.5,30.6L136.5,30.6z"/>
		<path class="st1" d="M141.5,31.5h1.4v0.7c0,0.2,0,0.4,0,0.4h0c0.3-0.5,0.9-1.2,2.1-1.2c1.3,0,2.1,0.7,2.1,2.2v3.8h-1.5v-3.5
			c0-0.7-0.2-1.2-0.9-1.2c-0.8,0-1.4,0.5-1.6,1.2c-0.1,0.2-0.1,0.5-0.1,0.8v2.7h-1.5V31.5z"/>
		<path class="st1" d="M152.1,33.7h0.2v-0.1c0-0.8-0.5-1-1.1-1c-0.8,0-1.6,0.6-1.6,0.6l-0.6-1.1c0,0,0.9-0.7,2.3-0.7
			c1.6,0,2.5,0.9,2.5,2.4v3.7h-1.4v-0.5c0-0.2,0-0.4,0-0.4h0c0,0-0.5,1-1.8,1c-1.1,0-2-0.7-2-1.8C148.6,33.8,151.1,33.7,152.1,33.7z
			 M150.9,36.4c0.8,0,1.3-0.8,1.3-1.6v-0.1H152c-0.8,0-2,0.1-2,0.9C150,36,150.3,36.4,150.9,36.4z"/>
		<path class="st1" d="M155.6,29.2h1.5v6.2c0,0.6,0.2,0.8,0.6,0.8c0.1,0,0.2,0,0.2,0v1.3c0,0-0.2,0-0.5,0c-0.8,0-1.8-0.2-1.8-1.9
			V29.2z"/>
		<path class="st1" d="M159.1,38.3c0,0,0.3,0.2,0.7,0.2c0.4,0,0.8-0.2,1-0.8l0.2-0.5l-2.5-5.8h1.7l1.2,3.4c0.1,0.3,0.2,0.8,0.2,0.8
			h0c0,0,0.1-0.5,0.2-0.8l1.2-3.4h1.6l-2.6,6.8c-0.4,1.1-1.2,1.5-2.1,1.5c-0.7,0-1.2-0.4-1.2-0.4L159.1,38.3z"/>
		<path class="st1" d="M166.2,32.7h-0.8v-1.2h0.8v-1.7h1.4v1.7h1.3v1.2h-1.3V35c0,1,0.8,1.1,1.2,1.1c0.2,0,0.3,0,0.3,0v1.3
			c0,0-0.2,0-0.5,0c-0.8,0-2.5-0.2-2.5-2.2V32.7z"/>
		<path class="st1" d="M170.8,29.2h1.5v1.3h-1.5V29.2z M170.8,31.5h1.5v5.9h-1.5V31.5z"/>
		<path class="st1" d="M177.1,31.3c1.5,0,2.3,0.9,2.3,0.9l-0.6,1c0,0-0.6-0.6-1.5-0.6c-1.1,0-1.8,0.8-1.8,1.8c0,1,0.7,1.9,1.8,1.9
			c1,0,1.7-0.8,1.7-0.8l0.6,1c0,0-0.8,1-2.4,1c-2,0-3.2-1.4-3.2-3.1C173.9,32.8,175.2,31.3,177.1,31.3z"/>
		<path class="st1" d="M181.3,35.6c0,0,0.6,0.6,1.6,0.6c0.4,0,0.8-0.2,0.8-0.5c0-0.9-2.9-0.8-2.9-2.7c0-1.1,1-1.7,2.3-1.7
			c1.3,0,2,0.7,2,0.7l-0.5,1.1c0,0-0.5-0.5-1.4-0.5c-0.4,0-0.8,0.2-0.8,0.5c0,0.8,2.9,0.7,2.9,2.6c0,1-0.9,1.8-2.3,1.8
			c-1.5,0-2.3-0.9-2.3-0.9L181.3,35.6z"/>
	</g>
	<g>
		<linearGradient id="SVGID_1_" gradientUnits="userSpaceOnUse" x1="12.6133" y1="29.8241" x2="25.3284" y2="7.8009">
			<stop  offset="0" style="stop-color:#AEAEAE;stop-opacity:0.5"/>
			<stop  offset="0.2132" style="stop-color:#A9AFB3;stop-opacity:0.6066"/>
			<stop  offset="0.5044" style="stop-color:#9CB0BF;stop-opacity:0.7522"/>
			<stop  offset="0.8393" style="stop-color:#82B3D4;stop-opacity:0.9197"/>
			<stop  offset="1" style="stop-color:#70B4E3"/>
		</linearGradient>
		<path class="st2" d="M28.4,14.4c0-4.6-3.6-8.2-8-8.2c-4.4,0-8,3.7-8,8.2c0,1.5,0.5,2.8,1.1,4.1c0.9,2,3.4,7.9,3.4,7.9l3.5,7.9
			l3.5-7.9c0,0,2.6-5.9,3.4-7.9C27.8,17.2,28.4,15.9,28.4,14.4z"/>
		<g>
			<path class="st3" d="M3.3,2.8h8.1v3.8H7.8v26.9h3.7v3.8H3.3V2.8z"/>
			<path class="st3" d="M33.3,33.6V6.6h-3.7V2.8h8.1v34.5h-8.1v-3.8H33.3z"/>
		</g>
	</g>
</g>
</svg>
